{"accessors" : [{"bufferView" : 0, "byteOffset" : 0, "componentType" : 5123, "count" : 9162, "type" : "SCALAR", "max" : [7331], "min" : [0]}, {"bufferView" : 1, "byteOffset" : 0, "componentType" : 5126, "count" : 7332, "type" : "VEC3", "max" : [0.07395099848508835, 0.1016950011253357, 0.06468600034713745], "min" : [-0.07395099848508835, -0.10112500190734863, -0.06692200154066086], "name" : "POSITION"}, {"bufferView" : 1, "byteOffset" : 12, "componentType" : 5126, "count" : 7332, "type" : "VEC2", "max" : [0.9980400204658508, -0.0019499999471008778], "min" : [0.0019499999471008778, -0.9103699922561646], "name" : "TEXCOORD_0"}, {"bufferView" : 1, "byteOffset" : 20, "componentType" : 5126, "count" : 7332, "type" : "VEC3", "max" : [0.9999567270278931, 0.9908108711242676, 0.9993376731872559], "min" : [-0.9977181553840637, -0.9995070695877075, -0.9933488368988037], "name" : "NORMAL"}], "asset" : {"generator" : "Aspose.3D 22.3", "version" : "2.0"}, "buffers" : [{"uri" : "data:application/octet-stream;base64,", "byteLength" : 311516}], "bufferViews" : [{"buffer" : 0, "byteOffset" : 0, "byteLength" : 18324, "target" : 34963}, {"buffer" : 0, "byteOffset" : 18328, "byteLength" : 293184, "byteStride" : 32, "target" : 34962}], "meshes" : [{"primitives" : [{"attributes" : {"POSITION" : 1, "TEXCOORD_0" : 2, "NORMAL" : 3}, "indices" : 0, "mode" : 4}], "name" : ""}], "nodes" : [{"mesh" : 0, "name" : "Heart"}], "scene" : 0, "scenes" : [{"nodes" : [0]}]}